<mxfile host="app.diagrams.net" modified="2021-04-11T13:57:24.571Z" agent="5.0 (Windows NT 10.0; WOW64) AppleWebKit/537.36 (KHTML, like Gecko) Chrome/69.0.3947.100 Safari/537.36" etag="M6_-iFY4IvtkJsJHGgS9" version="14.5.10" type="github">
  <diagram id="hiHt1AXURksgVoXPxqpf" name="Page-1">
    <mxGraphModel dx="663" dy="411" grid="1" gridSize="10" guides="1" tooltips="1" connect="1" arrows="1" fold="1" page="1" pageScale="1" pageWidth="827" pageHeight="1169" math="0" shadow="0">
      <root>
        <mxCell id="0" />
        <mxCell id="1" parent="0" />
        <mxCell id="XYvxMqAaB1pXMje3Bv3W-18" style="edgeStyle=orthogonalEdgeStyle;rounded=0;orthogonalLoop=1;jettySize=auto;html=1;exitX=0;exitY=0;exitDx=30;exitDy=50;exitPerimeter=0;entryX=-0.08;entryY=0.62;entryDx=0;entryDy=0;entryPerimeter=0;" edge="1" parent="1" source="XYvxMqAaB1pXMje3Bv3W-1" target="XYvxMqAaB1pXMje3Bv3W-11">
          <mxGeometry relative="1" as="geometry" />
        </mxCell>
        <mxCell id="XYvxMqAaB1pXMje3Bv3W-1" value="" style="shape=cube;whiteSpace=wrap;html=1;boundedLbl=1;backgroundOutline=1;darkOpacity=0.05;darkOpacity2=0.1;fillColor=#dae8fc;strokeColor=#6c8ebf;" vertex="1" parent="1">
          <mxGeometry x="50" y="70" width="30" height="80" as="geometry" />
        </mxCell>
        <mxCell id="XYvxMqAaB1pXMje3Bv3W-41" style="edgeStyle=orthogonalEdgeStyle;rounded=0;orthogonalLoop=1;jettySize=auto;html=1;exitX=0;exitY=0;exitDx=30;exitDy=50;exitPerimeter=0;entryX=0;entryY=0.625;entryDx=0;entryDy=0;entryPerimeter=0;" edge="1" parent="1" source="XYvxMqAaB1pXMje3Bv3W-2" target="XYvxMqAaB1pXMje3Bv3W-33">
          <mxGeometry relative="1" as="geometry" />
        </mxCell>
        <mxCell id="XYvxMqAaB1pXMje3Bv3W-2" value="" style="shape=cube;whiteSpace=wrap;html=1;boundedLbl=1;backgroundOutline=1;darkOpacity=0.05;darkOpacity2=0.1;fillColor=#d5e8d4;strokeColor=#82b366;gradientColor=#97d077;" vertex="1" parent="1">
          <mxGeometry x="290" y="70" width="30" height="80" as="geometry" />
        </mxCell>
        <mxCell id="XYvxMqAaB1pXMje3Bv3W-4" value="" style="shape=cube;whiteSpace=wrap;html=1;boundedLbl=1;backgroundOutline=1;darkOpacity=0.05;darkOpacity2=0.1;fillColor=#dae8fc;strokeColor=#6c8ebf;gradientColor=#7ea6e0;" vertex="1" parent="1">
          <mxGeometry x="280" y="70" width="30" height="80" as="geometry" />
        </mxCell>
        <mxCell id="XYvxMqAaB1pXMje3Bv3W-8" value="" style="shape=cube;whiteSpace=wrap;html=1;boundedLbl=1;backgroundOutline=1;darkOpacity=0.05;darkOpacity2=0.1;fillColor=#fff2cc;strokeColor=#d6b656;gradientColor=#ffd966;" vertex="1" parent="1">
          <mxGeometry x="270" y="70" width="30" height="80" as="geometry" />
        </mxCell>
        <mxCell id="XYvxMqAaB1pXMje3Bv3W-6" value="" style="shape=cube;whiteSpace=wrap;html=1;boundedLbl=1;backgroundOutline=1;darkOpacity=0.05;darkOpacity2=0.1;fillColor=#f5f5f5;strokeColor=#666666;gradientColor=#b3b3b3;" vertex="1" parent="1">
          <mxGeometry x="260" y="70" width="30" height="80" as="geometry" />
        </mxCell>
        <mxCell id="XYvxMqAaB1pXMje3Bv3W-11" value="" style="shape=cube;whiteSpace=wrap;html=1;boundedLbl=1;backgroundOutline=1;darkOpacity=0.05;darkOpacity2=0.1;fillColor=#dae8fc;strokeColor=#6c8ebf;" vertex="1" parent="1">
          <mxGeometry x="250" y="70" width="30" height="80" as="geometry" />
        </mxCell>
        <mxCell id="XYvxMqAaB1pXMje3Bv3W-43" style="edgeStyle=orthogonalEdgeStyle;rounded=0;orthogonalLoop=1;jettySize=auto;html=1;exitX=1;exitY=0.5;exitDx=0;exitDy=0;entryX=1;entryY=1;entryDx=0;entryDy=0;entryPerimeter=0;strokeColor=#666666;gradientColor=#b3b3b3;fillColor=#f5f5f5;" edge="1" parent="1">
          <mxGeometry relative="1" as="geometry">
            <mxPoint x="146" y="160" as="sourcePoint" />
            <mxPoint x="286" y="150" as="targetPoint" />
            <Array as="points">
              <mxPoint x="286" y="160" />
            </Array>
          </mxGeometry>
        </mxCell>
        <mxCell id="XYvxMqAaB1pXMje3Bv3W-12" value="conv" style="rounded=1;whiteSpace=wrap;html=1;fillColor=#f5f5f5;strokeColor=#666666;gradientColor=#b3b3b3;" vertex="1" parent="1">
          <mxGeometry x="110" y="150" width="40" height="20" as="geometry" />
        </mxCell>
        <mxCell id="XYvxMqAaB1pXMje3Bv3W-27" style="edgeStyle=orthogonalEdgeStyle;rounded=0;orthogonalLoop=1;jettySize=auto;html=1;exitX=1;exitY=0.5;exitDx=0;exitDy=0;entryX=0.38;entryY=-0.06;entryDx=0;entryDy=0;entryPerimeter=0;strokeColor=#FFB366;" edge="1" parent="1" source="XYvxMqAaB1pXMje3Bv3W-13" target="XYvxMqAaB1pXMje3Bv3W-26">
          <mxGeometry relative="1" as="geometry">
            <Array as="points">
              <mxPoint x="188" y="200" />
            </Array>
          </mxGeometry>
        </mxCell>
        <mxCell id="XYvxMqAaB1pXMje3Bv3W-34" style="edgeStyle=orthogonalEdgeStyle;rounded=0;orthogonalLoop=1;jettySize=auto;html=1;entryX=0.827;entryY=1.035;entryDx=0;entryDy=0;entryPerimeter=0;strokeColor=#FFB366;" edge="1" parent="1" source="XYvxMqAaB1pXMje3Bv3W-13" target="XYvxMqAaB1pXMje3Bv3W-8">
          <mxGeometry relative="1" as="geometry" />
        </mxCell>
        <mxCell id="XYvxMqAaB1pXMje3Bv3W-13" value="d=2" style="rounded=1;whiteSpace=wrap;html=1;gradientColor=#ffd966;fillColor=#fff2cc;strokeColor=#d6b656;" vertex="1" parent="1">
          <mxGeometry x="150" y="180" width="30" height="40" as="geometry" />
        </mxCell>
        <mxCell id="XYvxMqAaB1pXMje3Bv3W-35" style="edgeStyle=orthogonalEdgeStyle;rounded=0;orthogonalLoop=1;jettySize=auto;html=1;exitX=1;exitY=0.5;exitDx=0;exitDy=0;entryX=0.88;entryY=1.035;entryDx=0;entryDy=0;entryPerimeter=0;strokeColor=#66B2FF;" edge="1" parent="1" source="XYvxMqAaB1pXMje3Bv3W-16" target="XYvxMqAaB1pXMje3Bv3W-4">
          <mxGeometry relative="1" as="geometry" />
        </mxCell>
        <mxCell id="XYvxMqAaB1pXMje3Bv3W-16" value="d=4" style="rounded=1;whiteSpace=wrap;html=1;gradientColor=#7ea6e0;fillColor=#dae8fc;strokeColor=#6c8ebf;" vertex="1" parent="1">
          <mxGeometry x="210" y="230" width="30" height="40" as="geometry" />
        </mxCell>
        <mxCell id="XYvxMqAaB1pXMje3Bv3W-40" style="edgeStyle=orthogonalEdgeStyle;rounded=0;orthogonalLoop=1;jettySize=auto;html=1;exitX=0.5;exitY=0;exitDx=0;exitDy=0;entryX=0;entryY=0;entryDx=25;entryDy=80;entryPerimeter=0;gradientColor=#97d077;fillColor=#d5e8d4;strokeColor=#82B366;" edge="1" parent="1" source="XYvxMqAaB1pXMje3Bv3W-17" target="XYvxMqAaB1pXMje3Bv3W-2">
          <mxGeometry relative="1" as="geometry" />
        </mxCell>
        <mxCell id="XYvxMqAaB1pXMje3Bv3W-17" value="d=8" style="rounded=1;whiteSpace=wrap;html=1;gradientColor=#97d077;fillColor=#d5e8d4;strokeColor=#82b366;" vertex="1" parent="1">
          <mxGeometry x="300" y="278" width="30" height="40" as="geometry" />
        </mxCell>
        <mxCell id="XYvxMqAaB1pXMje3Bv3W-21" value="" style="endArrow=none;html=1;" edge="1" parent="1">
          <mxGeometry width="50" height="50" relative="1" as="geometry">
            <mxPoint x="90" y="300" as="sourcePoint" />
            <mxPoint x="90" y="120" as="targetPoint" />
          </mxGeometry>
        </mxCell>
        <mxCell id="XYvxMqAaB1pXMje3Bv3W-22" value="" style="endArrow=classic;html=1;entryX=0;entryY=0.5;entryDx=0;entryDy=0;" edge="1" parent="1" target="XYvxMqAaB1pXMje3Bv3W-12">
          <mxGeometry width="50" height="50" relative="1" as="geometry">
            <mxPoint x="90" y="160" as="sourcePoint" />
            <mxPoint x="310" y="180" as="targetPoint" />
          </mxGeometry>
        </mxCell>
        <mxCell id="XYvxMqAaB1pXMje3Bv3W-23" value="" style="endArrow=classic;html=1;" edge="1" parent="1">
          <mxGeometry width="50" height="50" relative="1" as="geometry">
            <mxPoint x="90" y="300" as="sourcePoint" />
            <mxPoint x="178" y="301" as="targetPoint" />
          </mxGeometry>
        </mxCell>
        <mxCell id="XYvxMqAaB1pXMje3Bv3W-24" value="" style="endArrow=classic;html=1;" edge="1" parent="1">
          <mxGeometry width="50" height="50" relative="1" as="geometry">
            <mxPoint x="90" y="250" as="sourcePoint" />
            <mxPoint x="180" y="250" as="targetPoint" />
          </mxGeometry>
        </mxCell>
        <mxCell id="XYvxMqAaB1pXMje3Bv3W-25" value="" style="endArrow=classic;html=1;entryX=0;entryY=0.5;entryDx=0;entryDy=0;" edge="1" parent="1" target="XYvxMqAaB1pXMje3Bv3W-13">
          <mxGeometry width="50" height="50" relative="1" as="geometry">
            <mxPoint x="90" y="200" as="sourcePoint" />
            <mxPoint x="310" y="180" as="targetPoint" />
          </mxGeometry>
        </mxCell>
        <mxCell id="XYvxMqAaB1pXMje3Bv3W-28" style="edgeStyle=orthogonalEdgeStyle;rounded=0;orthogonalLoop=1;jettySize=auto;html=1;exitX=1;exitY=0.5;exitDx=0;exitDy=0;entryX=0;entryY=0.5;entryDx=0;entryDy=0;strokeColor=#FFB366;" edge="1" parent="1" source="XYvxMqAaB1pXMje3Bv3W-26" target="XYvxMqAaB1pXMje3Bv3W-16">
          <mxGeometry relative="1" as="geometry" />
        </mxCell>
        <mxCell id="XYvxMqAaB1pXMje3Bv3W-31" style="edgeStyle=orthogonalEdgeStyle;rounded=0;orthogonalLoop=1;jettySize=auto;html=1;exitX=0.5;exitY=1;exitDx=0;exitDy=0;entryX=0.5;entryY=0;entryDx=0;entryDy=0;strokeColor=#FFB366;" edge="1" parent="1" source="XYvxMqAaB1pXMje3Bv3W-26" target="XYvxMqAaB1pXMje3Bv3W-30">
          <mxGeometry relative="1" as="geometry" />
        </mxCell>
        <mxCell id="XYvxMqAaB1pXMje3Bv3W-26" value="C" style="ellipse;whiteSpace=wrap;html=1;aspect=fixed;" vertex="1" parent="1">
          <mxGeometry x="180" y="240" width="20" height="20" as="geometry" />
        </mxCell>
        <mxCell id="XYvxMqAaB1pXMje3Bv3W-37" style="edgeStyle=orthogonalEdgeStyle;rounded=0;orthogonalLoop=1;jettySize=auto;html=1;exitX=1;exitY=0.5;exitDx=0;exitDy=0;entryX=-0.12;entryY=0.6;entryDx=0;entryDy=0;entryPerimeter=0;strokeColor=#FFB366;" edge="1" parent="1" source="XYvxMqAaB1pXMje3Bv3W-30" target="XYvxMqAaB1pXMje3Bv3W-36">
          <mxGeometry relative="1" as="geometry" />
        </mxCell>
        <mxCell id="XYvxMqAaB1pXMje3Bv3W-30" value="C" style="ellipse;whiteSpace=wrap;html=1;aspect=fixed;" vertex="1" parent="1">
          <mxGeometry x="180" y="290" width="20" height="20" as="geometry" />
        </mxCell>
        <mxCell id="XYvxMqAaB1pXMje3Bv3W-42" style="edgeStyle=orthogonalEdgeStyle;rounded=0;orthogonalLoop=1;jettySize=auto;html=1;exitX=0;exitY=0;exitDx=30;exitDy=50;exitPerimeter=0;strokeColor=#000000;" edge="1" parent="1" source="XYvxMqAaB1pXMje3Bv3W-33">
          <mxGeometry relative="1" as="geometry">
            <mxPoint x="400" y="120" as="targetPoint" />
          </mxGeometry>
        </mxCell>
        <mxCell id="XYvxMqAaB1pXMje3Bv3W-33" value="" style="shape=cube;whiteSpace=wrap;html=1;boundedLbl=1;backgroundOutline=1;darkOpacity=0.05;darkOpacity2=0.1;fillColor=#dae8fc;strokeColor=#6c8ebf;" vertex="1" parent="1">
          <mxGeometry x="340" y="70" width="30" height="80" as="geometry" />
        </mxCell>
        <mxCell id="XYvxMqAaB1pXMje3Bv3W-39" style="edgeStyle=orthogonalEdgeStyle;rounded=0;orthogonalLoop=1;jettySize=auto;html=1;exitX=1;exitY=0.5;exitDx=0;exitDy=0;entryX=0;entryY=0.5;entryDx=0;entryDy=0;strokeColor=#66B2FF;" edge="1" parent="1" source="XYvxMqAaB1pXMje3Bv3W-36" target="XYvxMqAaB1pXMje3Bv3W-17">
          <mxGeometry relative="1" as="geometry" />
        </mxCell>
        <mxCell id="XYvxMqAaB1pXMje3Bv3W-36" value="C" style="ellipse;whiteSpace=wrap;html=1;aspect=fixed;" vertex="1" parent="1">
          <mxGeometry x="250" y="288" width="20" height="20" as="geometry" />
        </mxCell>
        <mxCell id="XYvxMqAaB1pXMje3Bv3W-38" value="" style="endArrow=classic;html=1;entryX=0.5;entryY=0;entryDx=0;entryDy=0;strokeColor=#66B2FF;" edge="1" parent="1" target="XYvxMqAaB1pXMje3Bv3W-36">
          <mxGeometry width="50" height="50" relative="1" as="geometry">
            <mxPoint x="260" y="250" as="sourcePoint" />
            <mxPoint x="310" y="180" as="targetPoint" />
          </mxGeometry>
        </mxCell>
        <mxCell id="XYvxMqAaB1pXMje3Bv3W-44" value="D-ASPP" style="text;html=1;resizable=0;autosize=1;align=center;verticalAlign=middle;points=[];fillColor=none;strokeColor=none;rounded=0;" vertex="1" parent="1">
          <mxGeometry x="190" y="330" width="60" height="20" as="geometry" />
        </mxCell>
      </root>
    </mxGraphModel>
  </diagram>
</mxfile>
